<svg width="1600" height="900" viewBox="0 0 1600 900" fill="none" xmlns="http://www.w3.org/2000/svg" role="img" aria-labelledby="title desc">
  <title id="title">Building a better dating profile bio</title>
  <desc id="desc">A profile card is assembled from specific details, a routine, and a conversation invitation.</desc>
  <defs>
    <linearGradient id="bg" x1="0" y1="0" x2="1600" y2="900" gradientUnits="userSpaceOnUse"><stop stop-color="#17112D"/><stop offset="0.5" stop-color="#332051"/><stop offset="1" stop-color="#111A2B"/></linearGradient>
    <linearGradient id="card" x1="430" y1="160" x2="1000" y2="720" gradientUnits="userSpaceOnUse"><stop stop-color="#F9A8D4"/><stop offset="0.5" stop-color="#C4B5FD"/><stop offset="1" stop-color="#93C5FD"/></linearGradient>
    <filter id="glow" x="-50%" y="-50%" width="200%" height="200%"><feGaussianBlur stdDeviation="26"/></filter>
  </defs>
  <rect width="1600" height="900" rx="32" fill="url(#bg)"/><circle cx="760" cy="430" r="320" fill="#C084FC" fill-opacity="0.14" filter="url(#glow)"/>
  <g transform="translate(430 120)"><rect width="560" height="650" rx="38" fill="#0E1020" stroke="url(#card)" stroke-width="6"/><rect x="32" y="32" width="496" height="205" rx="26" fill="url(#card)" fill-opacity="0.72"/><circle cx="280" cy="110" r="54" fill="#FFFFFF" fill-opacity="0.35"/><path d="M205 194C225 155 335 155 355 194" stroke="#FFFFFF" stroke-opacity="0.8" stroke-width="12" stroke-linecap="round"/><text x="42" y="300" fill="#F9A8D4" font-family="Arial,sans-serif" font-size="17" font-weight="900" letter-spacing="3">A BIO WITH A POINT OF VIEW</text><text x="42" y="360" fill="#FFFFFF" font-family="Arial,sans-serif" font-size="30" font-weight="800">Makes a great</text><text x="42" y="402" fill="#FFFFFF" font-family="Arial,sans-serif" font-size="30" font-weight="800">breakfast burrito.</text><rect x="42" y="454" width="196" height="42" rx="21" fill="#F9A8D4" fill-opacity="0.2" stroke="#F9A8D4" stroke-opacity="0.6" stroke-width="2"/><text x="63" y="481" fill="#FBCFE8" font-family="Arial,sans-serif" font-size="15" font-weight="800">SPECIFIC DETAIL</text><rect x="42" y="520" width="210" height="42" rx="21" fill="#93C5FD" fill-opacity="0.14" stroke="#93C5FD" stroke-opacity="0.6" stroke-width="2"/><text x="63" y="547" fill="#BFDBFE" font-family="Arial,sans-serif" font-size="15" font-weight="800">EASY OPENING</text></g>
  <g transform="translate(1080 220) rotate(12 150 150)"><rect width="280" height="250" rx="24" fill="#FDE68A"/><path d="M45 205L75 55L225 42L202 190Z" fill="#F59E0B" fill-opacity="0.35"/><path d="M70 180L190 64" stroke="#7C2D12" stroke-width="18" stroke-linecap="round"/><path d="M182 72L220 38" stroke="#7C2D12" stroke-width="18" stroke-linecap="round"/><text x="48" y="230" fill="#7C2D12" font-family="Arial,sans-serif" font-size="15" font-weight="900" letter-spacing="2">WRITE YOUR ANGLE</text></g>
  <text x="800" y="830" text-anchor="middle" fill="#FFFFFF" fill-opacity="0.5" font-family="Arial,sans-serif" font-size="18" letter-spacing="6">DETAIL  â€¢  ROUTINE  â€¢  INVITATION</text>
</svg>

