<svg width="1600" height="900" viewBox="0 0 1600 900" fill="none" xmlns="http://www.w3.org/2000/svg" role="img" aria-labelledby="title desc">
  <title id="title">Asking someone out with a clear plan</title>
  <desc id="desc">A calendar, location pin, and message bubble form a simple low-pressure date invitation.</desc>
  <defs>
    <linearGradient id="bg" x1="0" y1="0" x2="1600" y2="900" gradientUnits="userSpaceOnUse"><stop stop-color="#27101C"/><stop offset="0.48" stop-color="#4B1D36"/><stop offset="1" stop-color="#161B2D"/></linearGradient>
    <linearGradient id="calendar" x1="350" y1="160" x2="850" y2="690" gradientUnits="userSpaceOnUse"><stop stop-color="#FBCFE8"/><stop offset="1" stop-color="#FDBA74"/></linearGradient>
    <linearGradient id="bubble" x1="900" y1="310" x2="1320" y2="620" gradientUnits="userSpaceOnUse"><stop stop-color="#F472B6"/><stop offset="1" stop-color="#F59E0B"/></linearGradient>
  </defs>
  <rect width="1600" height="900" rx="32" fill="url(#bg)"/><path d="M80 730C330 560 500 600 700 730C920 870 1210 820 1530 570" stroke="#FB7185" stroke-opacity="0.2" stroke-width="5"/>
  <g transform="translate(270 130) rotate(-5 280 300)"><rect width="560" height="610" rx="34" fill="#160F22" stroke="url(#calendar)" stroke-width="7"/><rect width="560" height="145" rx="34" fill="url(#calendar)"/><text x="44" y="92" fill="#4A1728" font-family="Arial,sans-serif" font-size="28" font-weight="900" letter-spacing="3">NEXT WEEK</text><g fill="#FDE68A" opacity="0.85"><circle cx="112" cy="250" r="23"/><circle cx="280" cy="250" r="23"/><circle cx="448" cy="250" r="23"/><circle cx="112" cy="365" r="23"/><circle cx="280" cy="365" r="23"/><circle cx="448" cy="365" r="23"/><circle cx="112" cy="480" r="23"/><circle cx="280" cy="480" r="23"/><circle cx="448" cy="480" r="23"/></g><circle cx="280" cy="365" r="34" fill="#FB7185"/><path d="M263 365L278 380L307 346" stroke="#FFF7ED" stroke-width="9" stroke-linecap="round" stroke-linejoin="round"/><text x="44" y="555" fill="#FBCFE8" font-family="Arial,sans-serif" font-size="18" font-weight="800" letter-spacing="3">A REAL DAY  â€¢  A SIMPLE PLAN</text></g>
  <g transform="translate(870 285)"><path d="M0 48C0 22 22 0 48 0H450C476 0 498 22 498 48V250C498 276 476 298 450 298H140L45 360V298H48C22 298 0 276 0 250V48Z" fill="url(#bubble)"/><text x="48" y="92" fill="#451229" font-family="Arial,sans-serif" font-size="19" font-weight="900" letter-spacing="4">CLEAR INVITATION</text><text x="48" y="150" fill="#451229" font-family="Arial,sans-serif" font-size="29" font-weight="900">Coffee this</text><text x="48" y="192" fill="#451229" font-family="Arial,sans-serif" font-size="29" font-weight="900">Saturday?</text><circle cx="410" cy="210" r="34" fill="#451229" fill-opacity="0.15"/><path d="M393 210L407 224L432 194" stroke="#451229" stroke-width="8" stroke-linecap="round" stroke-linejoin="round"/></g>
  <text x="800" y="820" text-anchor="middle" fill="#FFFFFF" fill-opacity="0.5" font-family="Arial,sans-serif" font-size="18" letter-spacing="6">WARM  â€¢  SPECIFIC  â€¢  EASY TO ANSWER</text>
</svg>

